<?xml version="1.0" standalone="no"?>
<!DOCTYPE svg PUBLIC "-//W3C//DTD SVG 1.1//EN" "http://www.w3.org/Graphics/SVG/1.1/DTD/svg11.dtd">
<svg xmlns="http://www.w3.org/2000/svg" data-name="Layer 1" viewBox="0 0 512 512" width="512" height="512"><circle cx="305.095" cy="184.078" r="88.876" fill="#ffe966"/><path fill="#ffe236" d="M305.095 242.954a58.876 58.876 0 1 1 58.876-58.877 58.944 58.944 0 0 1-58.876 58.877Z"/><path fill="#ffed80" d="M305.095 212.954a28.876 28.876 0 1 1 28.876-28.877 28.91 28.91 0 0 1-28.876 28.877Z"/><path fill="#f66" d="M440.424 313.674h-75.423L410 199.5l37.934 103.419a8 8 0 0 1-7.51 10.755Z"/><path fill="#ff4e4e" d="M447.935 302.919 410 199.5l-15.538 39.425 23.473 63.994a8 8 0 0 1-7.51 10.755h30a8 8 0 0 0 7.51-10.755zm-376.36 10.755H147L102 199.5 64.065 302.919a8 8 0 0 0 7.51 10.755z"/><path fill="#f66" d="M365.001 504.5h-218l-45-305 157.374 30 150.626-30-45 305z"/><path fill="#ff4e4e" d="m229.375 229.5 14.672-2.922L102.001 199.5l.868 5.884L229.375 229.5zM379.092 205.656 335.001 504.5H365l45-305-30.908 6.156z"/><path fill="#ff4e4e" d="M327.749 309.139H184.252a15 15 0 0 1-11.756-5.684L102.001 214.5h308l-70.496 88.955a15 15 0 0 1-11.756 5.684Z"/><path fill="#eee" d="M327.749 294.139H184.252a15 15 0 0 1-11.756-5.684L102.001 199.5h308l-70.496 88.955a15 15 0 0 1-11.756 5.684Z"/><path fill="#dedede" d="m368.113 199.5-58.608 73.955a15 15 0 0 1-11.756 5.684H165.113l7.383 9.316a15 15 0 0 0 11.756 5.684H327.75a15 15 0 0 0 11.756-5.684L410 199.5Z"/><rect width="153" height="71" x="179.501" y="363.095" fill="#fff" rx="10"/><path fill="#eee" d="M322.5 363.095h-30a10 10 0 0 1 10 10v51a10 10 0 0 1-10 10h30a10 10 0 0 0 10-10v-51a10 10 0 0 0-10-10Z"/><path fill="#272a33" d="m454.972 300.337-37.93-103.42c-.017-.043-.038-.084-.055-.127-.022-.057-.04-.115-.064-.171-.038-.094-.083-.184-.126-.276-.04-.086-.08-.17-.123-.254q-.102-.199-.216-.392a7.186 7.186 0 0 0-.163-.267c-.04-.062-.078-.127-.12-.189h-.001c-.034-.05-.073-.095-.108-.143a7.311 7.311 0 0 0-.216-.285c-.05-.061-.097-.124-.149-.184l-.023-.03c-.026-.03-.055-.055-.08-.084a7.245 7.245 0 0 0-.255-.27c-.057-.06-.114-.119-.174-.176l-.12-.111c-.087-.079-.176-.152-.265-.227-.043-.035-.081-.075-.125-.11-.027-.02-.056-.038-.084-.059-.042-.032-.083-.066-.126-.098-.081-.06-.166-.113-.249-.17a7.672 7.672 0 0 0-.282-.184c-.036-.023-.072-.048-.109-.07-.067-.04-.137-.073-.205-.11a7.615 7.615 0 0 0-.365-.19c-.033-.016-.065-.035-.1-.05-.054-.026-.111-.045-.167-.07a7.308 7.308 0 0 0-.412-.166c-.043-.017-.087-.033-.131-.048-.058-.02-.118-.036-.177-.054a7.776 7.776 0 0 0-.38-.112c-.061-.016-.123-.03-.186-.045a8.112 8.112 0 0 0-.188-.04c-.106-.021-.213-.043-.32-.06-.087-.013-.174-.023-.26-.034a6.324 6.324 0 0 0-.192-.022c-.085-.008-.17-.017-.255-.022-.113-.007-.226-.008-.34-.01-.043-.001-.087-.008-.13-.008h-8.862c.214-2.633.332-5.279.332-7.922a96.376 96.376 0 0 0-192.753 0c0 2.643.115 5.289.33 7.922h-33.746l-49.225-72.227-9.725-112.916a7.5 7.5 0 1 0-14.944 1.287l7.436 86.344L55.85 16.73a7.5 7.5 0 0 0-12.395 8.447l68.015 99.798L117.242 192H102c-.04 0-.08.005-.122.006a7.45 7.45 0 0 0-.37.013 7.092 7.092 0 0 0-.414.04c-.098.012-.196.024-.293.04-.096.015-.192.036-.288.055-.063.013-.125.024-.187.038a7.561 7.561 0 0 0-.221.054c-.117.03-.232.067-.347.103-.058.018-.117.033-.175.053l-.165.06c-.12.043-.238.094-.356.144l-.112.046c-.026.011-.053.02-.079.032-.044.02-.087.044-.13.065-.106.051-.21.107-.313.164-.083.044-.167.085-.248.133-.027.016-.052.035-.079.051l-.024.016a7.32 7.32 0 0 0-.252.164c-.096.064-.193.127-.287.196l-.113.09c-.027.02-.056.037-.083.059-.036.029-.068.062-.104.091a7.386 7.386 0 0 0-.406.356c-.054.052-.106.105-.158.157a7.551 7.551 0 0 0-.284.303c-.022.024-.046.045-.067.07l-.024.03a7.596 7.596 0 0 0-.38.489c-.03.041-.063.08-.092.122v.001c-.04.056-.073.115-.11.172a7.6 7.6 0 0 0-.187.304q-.102.175-.195.354a7.539 7.539 0 0 0-.14.29c-.04.086-.081.17-.118.258-.021.052-.038.105-.059.158-.018.047-.042.092-.06.14L57.031 300.332a15.49 15.49 0 0 0 14.549 20.838h40.79l27.211 184.425a7.5 7.5 0 0 0 7.42 6.406h218a7.5 7.5 0 0 0 7.419-6.406l27.21-184.425h40.79a15.49 15.49 0 0 0 14.552-20.832ZM71.58 306.17a.452.452 0 0 1-.415-.211.441.441 0 0 1-.054-.457l27.775-75.73 11.272 76.398Zm233.515-203.468a81.468 81.468 0 0 1 81.376 81.376c0 2.646-.142 5.293-.395 7.923H370.99a66.375 66.375 0 1 0-131.794 0h-15.082a82.602 82.602 0 0 1-.396-7.923 81.468 81.468 0 0 1 81.377-81.376Zm0 45A36.303 36.303 0 0 0 269.609 192h-15.255a51.376 51.376 0 1 1 101.481 0H340.59a36.348 36.348 0 0 0-35.495-44.3Zm21.376 36.376a21.287 21.287 0 0 1-1.537 7.923h-39.682a21.372 21.372 0 1 1 41.219-7.923ZM157.149 192h-24.852l-3.595-41.74Zm14.178 15h158.09c.024 0 .048.004.071.004.027 0 .053-.004.08-.004h32.313l.045.002.035-.002h30.64l.045.002.044-.002h1.797l-60.861 76.796a7.455 7.455 0 0 1-5.878 2.842H184.252a7.457 7.457 0 0 1-5.878-2.842L117.514 207Zm187.199 290H153.475l-39.97-270.908 53.113 67.02a22.378 22.378 0 0 0 17.634 8.526h143.496a22.376 22.376 0 0 0 17.634-8.525l53.114-67.022Zm82.309-191.042a.452.452 0 0 1-.415.211h-38.577l11.272-76.396 27.776 75.735a.437.437 0 0 1-.056.45Zm-211.583-51.64h68.496a7.5 7.5 0 0 0 0-15h-68.496a7.5 7.5 0 0 0 0 15ZM322.5 355.595h-133a17.52 17.52 0 0 0-17.5 17.5v51a17.52 17.52 0 0 0 17.5 17.5h133a17.52 17.52 0 0 0 17.5-17.5v-51a17.52 17.52 0 0 0-17.5-17.5Zm2.5 68.5a2.503 2.503 0 0 1-2.5 2.5h-133a2.503 2.503 0 0 1-2.5-2.5v-51a2.503 2.503 0 0 1 2.5-2.5h133a2.503 2.503 0 0 1 2.5 2.5Z"/></svg>