<?xml version="1.0" standalone="no"?>
<!DOCTYPE svg PUBLIC "-//W3C//DTD SVG 1.1//EN" "http://www.w3.org/Graphics/SVG/1.1/DTD/svg11.dtd">
<svg xmlns="http://www.w3.org/2000/svg" enable-background="new 0 0 66 66" viewBox="0 0 66 66" width="66" height="66"><path fill="#abb734" d="M36,36.4c-1.1-8.4-2.1-9-2.7-9.9c-0.6-0.9-0.7-2.3,0.1-3c0.9-0.8,2.5-0.4,3.5-1.3c1-0.9,1-2.8,2.3-3.2    c1.1-0.3,2,0.9,3.2,1c1.5,0.2,3-1.4,4.2-0.6c0.6,0.3,0.8,1,1,1.6c0.4,1.2,0.7,2.4,1.1,3.5c0.2,0.6,0.4,1.3,0.2,1.9    c-0.2,0.7-0.8,1.1-1.4,1.4c-0.6,0.2-1.3,0.3-1.9,8.2L36,36.4z"/><ellipse cx="23.7" cy="31.3" fill="#fa4968" rx="12.6" ry="8.2"/><ellipse cx="23.7" cy="31.3" fill="#ff6989" rx="9.6" ry="5"/><path fill="#e5e5e5" d="M59.8,35.5C57.3,42,51.7,46,47.4,44.3c-4.3-1.7-5.8-8.4-3.2-14.9c2.6-6.5,8.1-10.4,12.5-8.7    C61,22.3,62.4,29,59.8,35.5z"/><circle cx="52" cy="32.4" r="4.4" fill="#fecd04" transform="rotate(-11.304 51.98 32.44)"/><path fill="#ffb95c" d="M4.3,7.9l35,3c0.8,0.1,1.5-0.5,1.6-1.3l0,0C41,8.8,40.4,8,39.6,7.9L4.9,2.5C3.4,2.3,2,3.4,1.8,4.9l0,0    C1.6,6.4,2.7,7.8,4.3,7.9z"/><path fill="#ffb95c" d="M4.2,13.9l35-3c0.8-0.1,1.5,0.5,1.6,1.3l0,0c0.1,0.8-0.5,1.6-1.3,1.7L4.9,19.3c-1.5,0.2-2.9-0.8-3.1-2.4l0,0    C1.6,15.4,2.7,14,4.2,13.9z"/><path fill="#ffb95c" d="M4.2,13.9l35-3c0.8-0.1,1.5,0.5,1.6,1.3l0,0c0.1,0.8-0.5,1.6-1.3,1.7L4.9,19.3c-1.5,0.2-2.9-0.8-3.1-2.4l0,0    C1.6,15.4,2.7,14,4.2,13.9z"/><path fill="#559aff" d="M10.7,38.9c0,0.1,0,0.3,0,0.4c0,12.3,11.4,22.3,25.5,22.3c14.1,0,25.5-10,25.5-22.3c0-0.1,0-0.3,0-0.4H10.7z    "/><path fill="#e5e5e5" d="M57.7,51.4c1.6-2.2,2.8-4.6,3.5-7.3H11.3c0.7,2.6,1.9,5.1,3.5,7.3H57.7z"/><path fill="#3a8bed" d="M61.8 38.9h-51c-1.4 0-2.5-1.1-2.5-2.5v-.3c0-1.4 1.1-2.5 2.5-2.5h51c1.4 0 2.5 1.1 2.5 2.5v.3C64.2 37.8 63.1 38.9 61.8 38.9zM23.7 58.5h25.1v2.3c0 1.5-1.2 2.7-2.7 2.7H26.4c-1.5 0-2.7-1.2-2.7-2.7V58.5z"/><path fill="#fecd04" d="M28.8,15.5c-0.1,0.2-0.3,0.5-0.5,0.7c-0.4,0.4-0.6,0.8-0.6,1.2s0.2,0.9,0.6,1.2c0.4,0.4,0.6,0.8,0.6,1.2    s-0.2,0.9-0.6,1.2c-0.4,0.4-0.6,0.8-0.6,1.2c0,0.4,0.2,0.9,0.6,1.2c0.4,0.3,0.6,0.8,0.6,1.2s-0.2,0.9-0.6,1.2    c-0.4,0.3-0.6,0.8-0.6,1.2s0.2,0.9,0.6,1.2c0.4,0.3,0.6,0.8,0.6,1.2c0,0.5-0.2,0.9-0.6,1.2c-0.4,0.4-0.6,0.8-0.6,1.2    c0,0.5,0.2,0.9,0.6,1.2h4.5c-0.9-0.7-0.9-1.8,0-2.5c0.4-0.4,0.6-0.8,0.6-1.2c0-0.4-0.2-0.9-0.6-1.2c-0.4-0.3-0.6-0.8-0.6-1.2    s0.2-0.9,0.6-1.2c0.4-0.3,0.6-0.8,0.6-1.2s-0.2-0.9-0.6-1.2c-0.4-0.3-0.6-0.8-0.6-1.2c0-0.5,0.2-0.9,0.6-1.2    c0.4-0.4,0.6-0.8,0.6-1.2s-0.2-0.9-0.6-1.2c-0.4-0.4-0.6-0.8-0.6-1.2s0.2-0.9,0.6-1.2c0.4-0.3,0.6-0.8,0.6-1.2c0,0,0,0,0,0    c0-0.4-0.2-0.9-0.6-1.2c-0.4-0.3-0.6-0.8-0.6-1.2c0-0.3,0.1-0.6,0.3-0.9l-4.7,0.3c-0.3,0.6-0.1,1.3,0.5,1.8    c0.4,0.3,0.6,0.8,0.6,1.2C28.9,15.1,28.9,15.3,28.8,15.5z"/><path fill="#fecd04" d="M33.4,14.9c0,0.5-0.2,0.9-0.6,1.2c-0.4,0.4-0.6,0.8-0.6,1.2s0.2,0.9,0.6,1.2c0.4,0.4,0.6,0.8,0.6,1.2    s-0.2,0.9-0.6,1.2c-0.4,0.4-0.6,0.8-0.6,1.2c0,0.4,0.2,0.9,0.6,1.2c0.4,0.3,0.6,0.8,0.6,1.2s-0.2,0.9-0.6,1.2    c-0.4,0.3-0.6,0.8-0.6,1.2s0.2,0.9,0.6,1.2c0.4,0.3,0.6,0.8,0.6,1.2c0,0.5-0.2,0.9-0.6,1.2c-0.4,0.4-0.6,0.8-0.6,1.2    c0,0.5,0.2,0.9,0.6,1.2h4.5c-0.8-0.7-0.8-1.8,0-2.5c0.4-0.4,0.6-0.8,0.6-1.2c0-0.4-0.2-0.9-0.6-1.2c-0.4-0.3-0.6-0.8-0.6-1.2    s0.2-0.9,0.6-1.2c0.4-0.3,0.6-0.8,0.6-1.2s-0.2-0.9-0.6-1.2c-0.4-0.3-0.6-0.8-0.6-1.2c0-0.5,0.2-0.9,0.6-1.2    c0.4-0.4,0.6-0.8,0.6-1.2s-0.2-0.9-0.6-1.2c-0.4-0.4-0.6-0.8-0.6-1.2s0.2-0.9,0.6-1.2c0.4-0.4,0.6-0.8,0.6-1.2    c0-0.2,0-0.4-0.1-0.5c-0.1-0.3-0.3-0.5-0.5-0.7c-0.4-0.3-0.6-0.8-0.6-1.2c0-0.4,0.2-0.9,0.6-1.2l-4.9,0.3    c-0.5,0.7-0.4,1.6,0.3,2.2C33.2,14,33.4,14.4,33.4,14.9C33.4,14.9,33.4,14.9,33.4,14.9z"/><path fill="#fff" d="M56.5 37h-13c-.4 0-.8-.3-.8-.8 0-.4.3-.8.8-.8h13c.4 0 .8.3.8.8C57.2 36.7 56.9 37 56.5 37zM37.2 37h-2.5c-.4 0-.8-.3-.8-.8 0-.4.3-.8.8-.8h2.5c.4 0 .8.3.8.8C38 36.7 37.6 37 37.2 37z" opacity=".4"/></svg>