<?xml version="1.0" standalone="no"?>
<!DOCTYPE svg PUBLIC "-//W3C//DTD SVG 1.1//EN" "http://www.w3.org/Graphics/SVG/1.1/DTD/svg11.dtd">
<svg xmlns="http://www.w3.org/2000/svg" enable-background="new 0 0 68 68" viewBox="0 0 68 68" width="68" height="68"><path fill="#4269c4" d="M53.5012703,7.6939473L53.4322433,7.745626l-30.4739246,21.019701   c-0.4289227,0.2916622-1.009697,0.1969509-1.3248215-0.2239819c-0.3105316-0.4147968-0.2424088-1.0048695,0.1629696-1.3279781   L50.5488052,3.8940277c1.060482-0.8626156,2.6252861-0.6710773,3.4437599,0.4222131   C54.7922058,5.3843737,54.5634232,6.8987851,53.5012703,7.6939473z"/><path fill="#255299" d="M46.7626991,12.346097l6.6695442-4.600471l0.0690269-0.0516787   c1.0621529-0.7951622,1.2909355-2.3095737,0.4912949-3.3777065c-0.8184738-1.0932903-2.3832779-1.2848287-3.4437599-0.4222131   l-6.2928619,5.1036272L46.7626991,12.346097z"/><path fill="#e0860e" d="M26.6860828 42.7282753c0 3.7192421-3.2745514 5.1386108-7.3139153 5.1386108s-7.3139172-1.4193687-7.3139172-5.1386108c0-3.7192459 3.2745514-8.3299599 7.3139172-8.3299599S26.6860828 39.0090294 26.6860828 42.7282753zM42.6081924 42.7282753c0 3.7192421-3.2745514 5.1386108-7.3139153 5.1386108S27.98036 46.4475174 27.98036 42.7282753c0-3.7192459 3.2745533-8.3299599 7.3139172-8.3299599S42.6081924 39.0090294 42.6081924 42.7282753z"/><path fill="#fbad3e" d="M19.3721676,48.2805367c0,3.7192421-3.2745533,5.1386108-7.3139172,5.1386108    s-7.3139172-1.4193687-7.3139172-5.1386108c0-3.7192459,3.2745523-8.3299599,7.3139172-8.3299599    S19.3721676,44.5612907,19.3721676,48.2805367z"/><path fill="#fa990e" d="M34,48.2805367c0,3.7192421-3.2745514,5.1386108-7.3139172,5.1386108    s-7.3139153-1.4193687-7.3139153-5.1386108c0-3.7192459,3.2745514-8.3299599,7.3139153-8.3299599S34,44.5612907,34,48.2805367z"/><path fill="#fbad3e" d="M48.6278343 48.2805367c0 3.7192421-3.2745514 5.1386108-7.3139191 5.1386108S34 51.9997787 34 48.2805367c0-3.7192459 3.2745514-8.3299599 7.3139153-8.3299599S48.6278343 44.5612907 48.6278343 48.2805367zM39.067379 26.0969906c0 3.719244-3.2745552 5.1386127-7.3139191 5.1386127s-7.3139153-1.4193687-7.3139153-5.1386127 3.2745514-8.3299599 7.3139153-8.3299599S39.067379 22.3777485 39.067379 26.0969906z"/><path fill="#fa990e" d="M63.2556648,48.2805367c0,3.7192421-3.2745514,5.1386108-7.3139153,5.1386108    s-7.3139153-1.4193687-7.3139153-5.1386108c0-3.7192459,3.2745514-8.3299599,7.3139153-8.3299599    S63.2556648,44.5612907,63.2556648,48.2805367z"/><g><path fill="#d1dafe" d="M54.4840164,64.1032104c-13.4524117,0.6488495-27.1475182,0.7223282-41.0983963,0.1879883       c-2.6857519-0.1028671-5.1406412-1.2586174-6.4827485-3.0609589c-1.7381673-2.3342171-2.600853-6.6629333-2.7049479-9.2310104       h59.6041489c-0.5222473,2.5092964-1.4049377,6.7510757-2.8544044,8.9088326       C59.6917,62.777771,57.202816,63.9720764,54.4840164,64.1032104z"/><path fill="#8a9bea" d="M65.8917389,52.1881866c0,0.0636787,0,0.1276207-0.0106583,0.1915588     c-0.0745926,1.0539513-0.9900055,1.8524055-2.0333023,1.9163437c-19.8977051,1.2881317-39.805809,1.2774773-59.7032547-0.0213127     c-1.0328979-0.0639381-1.958971-0.8410797-2.0335662-1.8737183c-0.0103965-0.1915588,0-0.3727188,0.021313-0.5642738     c0.1172211-1.0326385,1.0219812-1.7887268,2.0548792-1.8417511c19.9826965-1.0326347,39.848175-1.0326347,59.6180038-0.0213127     C64.9760666,50.0376625,65.9343643,51.0170174,65.8917389,52.1881866z"/></g><path fill="#4269c4" d="M64.6292572,17.0925503l-0.0755157,0.0416241L31.4633198,33.7327309   c-0.4651699,0.2294769-1.0272388,0.055275-1.2810574-0.4052277c-0.2501163-0.4537926-0.1009617-1.0287514,0.3452454-1.2926331   l31.7037659-19.1143837c1.1696892-0.7074986,2.6929131-0.3011761,3.3521538,0.8948956   C66.2274933,14.9839306,65.7912598,16.4520874,64.6292572,17.0925503z"/><path fill="#255299" d="M57.3115349,20.7670307l7.2422066-3.6328564l0.0755157-0.0416241   c1.1620026-0.6404629,1.5982361-2.1086197,0.9541702-3.2771683c-0.6592407-1.1960716-2.1824646-1.6023941-3.3521538-0.8948956   l-6.9388046,4.1833134L57.3115349,20.7670307z"/></svg>