<?xml version="1.0" standalone="no"?>
<!DOCTYPE svg PUBLIC "-//W3C//DTD SVG 1.1//EN" "http://www.w3.org/Graphics/SVG/1.1/DTD/svg11.dtd">
<svg xmlns="http://www.w3.org/2000/svg" xmlns:xlink="http://www.w3.org/1999/xlink" enable-background="new 0 0 64 64" viewBox="0 0 64 64" width="64" height="64"><pattern id="j" width="23.63" height="23.25" x="-168" overflow="visible" patternUnits="userSpaceOnUse" viewBox="0 -23.25 23.63 23.25"><rect width="23.63" height="23.25" y="-23.25" fill="none"/><rect width="23.63" height="23.25" y="-23.25" fill="#fccc77"/></pattern><pattern id="o" width="24.63" height="24.63" x="-168" overflow="visible" patternUnits="userSpaceOnUse" viewBox="0 -24.63 24.63 24.63"><rect width="24.63" height="24.63" y="-24.63" fill="none"/><rect width="24.63" height="24.63" y="-24.63" fill="#a4ccf0"/></pattern><pattern id="d" width="24.63" height="24.63" x="-168" overflow="visible" patternUnits="userSpaceOnUse" viewBox="0 -24.63 24.63 24.63"><rect width="24.63" height="24.63" y="-24.63" fill="none"/><rect width="24.63" height="24.63" y="-24.63" fill="#a5b0b9"/></pattern><pattern id="a" width="23.63" height="23.25" x="-168" overflow="visible" patternUnits="userSpaceOnUse" viewBox="0 -23.25 23.63 23.25"><rect width="23.63" height="23.25" y="-23.25" fill="none"/><rect width="23.63" height="23.25" y="-23.25" fill="#f26d74"/></pattern><path d="M63.6,15.29c-0.3-0.33-0.69-0.54-1.12-0.57l-8.17-0.68c-0.01,0-0.01,0-0.02,0h-0.01l-3.39-0.28c0,0,0-0.01-0.01-0.01   l-0.01,0.01l-20.71-1.72V6.3h32.09c0.91,0,1.64-0.74,1.64-1.65V1.77c0-0.91-0.74-1.64-1.64-1.64H8.96c-0.91,0-1.64,0.74-1.64,1.64   v2.88c0,0.92,0.74,1.65,1.64,1.65H15v4.48l-6.11-0.49c-0.45-0.04-0.89,0.11-1.22,0.4c-0.33,0.29-0.53,0.68-0.56,1.11l-0.24,2.85   c-0.04,0.44,0.09,0.87,0.37,1.2c0.29,0.34,0.69,0.55,1.13,0.58L15,16.98v10.1H0.49C0.22,27.09,0,27.3,0,27.58v4.5   c0,0.27,0.22,0.49,0.49,0.49H2.4l5.34,27.89c0.04,0.23,0.25,0.39,0.48,0.39H8.6v1.75c0,0.7,0.57,1.27,1.27,1.27h28.48   c0.7,0,1.28-0.57,1.28-1.27v-1.75h0.12c0.24,0,0.43-0.17,0.48-0.39l5.58-27.89h1.75c0.27,0,0.49-0.23,0.49-0.49v-4.5   c0-0.28-0.23-0.49-0.49-0.49h-17.4v-8.86l20.34,1.69c0.01,0,0.01,0,0.02,0h0.03l3.15,0.27h0.05l8.22,0.69h0.13   c0.39,0,0.77-0.14,1.07-0.39c0.33-0.29,0.54-0.69,0.57-1.13L64,16.49C64.03,16.05,63.89,15.62,63.6,15.29z M54.74,1.11h7.51   c0.36,0,0.66,0.3,0.66,0.66v2.88c0,0.37-0.3,0.67-0.66,0.67h-7.51V1.11z M51.34,1.11h2.41v4.2h-2.41V1.11z M8.46,15.45   c-0.18-0.01-0.34-0.09-0.45-0.23c-0.12-0.14-0.17-0.31-0.15-0.48l0.24-2.86c0.01-0.18,0.09-0.33,0.22-0.45   c0.14-0.12,0.32-0.19,0.5-0.17L15,11.77V16L8.46,15.45z M5.21,42.01h11.7l-2.28,3.96c-0.09,0.15-0.09,0.33,0,0.49l2.28,3.96H6.82   L5.21,42.01z M19.86,38.86h8.49l4.24,7.36l-4.24,7.35h-8.49l-4.24-7.35L19.86,38.86z M38.64,62.6c0,0.16-0.14,0.29-0.3,0.29H9.87   c-0.16,0-0.29-0.13-0.29-0.29v-1.75h29.06V62.6z M39.34,59.87H8.63l-1.61-8.46h10.47l1.67,2.9c0.09,0.16,0.25,0.25,0.42,0.25h9.06   c0.18,0,0.33-0.09,0.42-0.25l1.67-2.9h10.3L39.34,59.87z M41.23,50.42H31.3l2.28-3.96c0.09-0.16,0.09-0.34,0-0.49l-2.28-3.96h11.61   L41.23,50.42z M43.11,41.03H30.73l-1.67-2.9c-0.09-0.15-0.25-0.25-0.42-0.25h-9.06c-0.18,0-0.33,0.1-0.42,0.25l-1.67,2.9H5.02   l-1.61-8.46h41.4L43.11,41.03z M47.07,28.07v3.52H0.98v-3.52H47.07z M15.98,27.09v-10.5c0-0.01,0-0.01,0-0.02v-5.19   c0-0.01,0-0.02,0-0.02V6.3h3.74v20.79H15.98z M20.71,27.09V6.3h3.74v20.79H20.71z M25.43,27.09V6.3h3.74v20.79H25.43z M8.96,5.31   c-0.36,0-0.66-0.3-0.66-0.67V1.77c0-0.36,0.3-0.66,0.66-0.66h41.4v4.2H8.96z M50.09,18.89l-19.93-1.65v-4.2l20.17,1.66L50.09,18.89   z M53.31,19.16l-2.25-0.19l0.25-4.19l2.39,0.2L53.31,19.16z M62.77,19.27c-0.01,0.19-0.09,0.34-0.23,0.46   c-0.14,0.12-0.32,0.17-0.48,0.16l-7.77-0.65l0.4-4.18l7.71,0.64c0.18,0.01,0.33,0.1,0.45,0.23c0.12,0.14,0.18,0.31,0.16,0.48   L62.77,19.27z"/><pattern id="b" patternTransform="translate(-151.213 -143.56) scale(.9847)" xlink:href="#a"/><polygon fill="url(#b)" points="53.71 14.98 53.31 19.16 51.07 18.97 51.31 14.79"/><pattern id="c" patternTransform="translate(-151.213 -143.56) scale(.9847)" xlink:href="#a"/><rect width="2.41" height="4.2" x="51.34" y="1.11" fill="url(#c)"/><pattern id="e" patternTransform="translate(-157.121 -103.209) scale(.9847)" xlink:href="#d"/><polygon fill="url(#e)" points="50.33 14.7 50.09 18.89 30.16 17.24 30.16 13.03"/><pattern id="f" patternTransform="translate(-157.121 -103.209) scale(.9847)" xlink:href="#d"/><path fill="url(#f)" d="M63.01,16.41l-0.25,2.86c-0.01,0.19-0.09,0.34-0.23,0.46c-0.14,0.12-0.32,0.17-0.48,0.16l-7.77-0.65l0.4-4.18   l7.71,0.64c0.18,0.01,0.33,0.1,0.45,0.23C62.97,16.07,63.03,16.23,63.01,16.41z"/><pattern id="g" patternTransform="translate(-157.121 -103.209) scale(.9847)" xlink:href="#d"/><path fill="url(#g)" d="M62.91,1.77v2.88c0,0.37-0.3,0.67-0.66,0.67h-7.51v-4.2h7.51C62.62,1.11,62.91,1.41,62.91,1.77z"/><pattern id="h" patternTransform="translate(-157.121 -103.209) scale(.9847)" xlink:href="#d"/><path fill="url(#h)" d="M15,11.77V16l-6.54-0.55c-0.18-0.01-0.34-0.09-0.45-0.23c-0.12-0.14-0.17-0.31-0.15-0.48l0.24-2.86   c0.01-0.18,0.09-0.33,0.22-0.45c0.14-0.12,0.32-0.19,0.5-0.17L15,11.77z"/><pattern id="i" patternTransform="translate(-157.121 -103.209) scale(.9847)" xlink:href="#d"/><path fill="url(#i)" d="M50.36,1.11v4.2H8.96c-0.36,0-0.66-0.3-0.66-0.67V1.77c0-0.36,0.3-0.66,0.66-0.66H50.36z"/><pattern id="k" patternTransform="translate(-151.213 -143.56) scale(.9847)" xlink:href="#j"/><rect width="3.74" height="20.79" x="25.43" y="6.3" fill="url(#k)"/><pattern id="l" patternTransform="translate(-151.213 -143.56) scale(.9847)" xlink:href="#j"/><rect width="3.74" height="20.79" x="20.71" y="6.3" fill="url(#l)"/><pattern id="m" patternTransform="translate(-151.213 -143.56) scale(.9847)" xlink:href="#j"/><path fill="url(#m)" d="M19.72,6.3v20.79h-3.74v-10.5c0-0.01,0-0.01,0-0.02v-5.19c0-0.01,0-0.02,0-0.02V6.3H19.72z"/><pattern id="n" patternTransform="translate(-151.213 -143.56) scale(.9847)" xlink:href="#a"/><path fill="url(#n)" d="M42.91,42.01l-1.68,8.41H31.3l2.28-3.96c0.09-0.16,0.09-0.34,0-0.49l-2.28-3.96H42.91z"/><pattern id="p" patternTransform="translate(-157.121 -103.209) scale(.9847)" xlink:href="#o"/><path fill="url(#p)" d="M28.35,38.86h-8.49l-4.24,7.36l4.24,7.35h8.49l4.24-7.35L28.35,38.86z M24.11,50.56   c-2.39,0-4.34-1.95-4.34-4.34c0-2.39,1.95-4.34,4.34-4.34s4.34,1.95,4.34,4.34C28.45,48.61,26.5,50.56,24.11,50.56z"/><pattern id="q" patternTransform="translate(-151.213 -143.56) scale(.9847)" xlink:href="#a"/><path fill="url(#q)" d="M14.62,46.47l2.28,3.96H6.82l-1.61-8.41h11.7l-2.28,3.96C14.53,46.12,14.53,46.31,14.62,46.47z"/><pattern id="r" patternTransform="translate(-151.213 -143.56) scale(.9847)" xlink:href="#j"/><path fill="url(#r)" d="M41.03,51.41l-1.69,8.46H8.63l-1.61-8.46h10.47l1.67,2.9c0.09,0.16,0.25,0.25,0.42,0.25h9.06   c0.18,0,0.33-0.09,0.42-0.25l1.67-2.9H41.03z"/><pattern id="s" patternTransform="translate(-151.213 -143.56) scale(.9847)" xlink:href="#j"/><path fill="url(#s)" d="M44.8,32.57l-1.69,8.46H30.73l-1.67-2.9c-0.09-0.15-0.25-0.25-0.42-0.25h-9.06c-0.18,0-0.33,0.1-0.42,0.25   l-1.67,2.9H5.02l-1.61-8.46H44.8z"/><pattern id="t" patternTransform="translate(-157.121 -103.209) scale(.9847)" xlink:href="#d"/><rect width="46.08" height="3.52" x=".98" y="28.07" fill="url(#t)"/><pattern id="u" patternTransform="translate(-157.121 -103.209) scale(.9847)" xlink:href="#d"/><path fill="url(#u)" d="M38.64,60.85v1.75c0,0.16-0.14,0.29-0.3,0.29H9.87c-0.16,0-0.29-0.13-0.29-0.29v-1.75H38.64z"/><path d="M24.11,41.88c-2.39,0-4.34,1.95-4.34,4.34c0,2.39,1.95,4.34,4.34,4.34s4.34-1.95,4.34-4.34   C28.45,43.83,26.5,41.88,24.11,41.88z M24.11,49.58c-1.85,0-3.36-1.51-3.36-3.36c0-1.85,1.51-3.36,3.36-3.36s3.36,1.51,3.36,3.36   C27.46,48.07,25.96,49.58,24.11,49.58z"/><pattern id="v" patternTransform="translate(-151.213 -143.56) scale(.9847)" xlink:href="#a"/><circle cx="24.11" cy="46.22" r="3.36" fill="url(#v)"/></svg>